<svg width="192" height="192" viewBox="0 0 192 192" fill="none" xmlns="http://www.w3.org/2000/svg">
<rect width="192" height="192" rx="50" fill="#5A3118"/>
<path d="M125.853 101.114C129.297 106.154 133.257 110.921 137.701 115.106C175.816 151.01 146.922 170.421 118.648 170.185C104.78 170.07 90.2688 169.755 76.4416 170.819C44.2032 173.299 22.43 150.039 51.8992 118.997C57.2424 113.369 61.7879 106.948 66.5231 100.8C76.377 88.0041 91.3459 81.7399 101.156 83.2108C111.076 84.6983 118.562 90.4449 125.853 101.114Z" fill="#FCFAF7"/>
<path d="M52.9445 92.8004C54.115 98.8234 53.0003 109.954 48.1167 115.985C42.3976 123.049 30.7793 119.829 23.8946 114.519C18.947 110.703 14.1714 105.203 12.2717 99.6957C11.2243 96.6591 11.0007 93.3312 11.1355 90.0686C11.5889 79.0982 17.8128 61.5622 26.9287 61.5622C40.0127 61.5622 51.1104 83.3625 52.9445 92.8004Z" fill="#FCFAF7"/>
<path d="M89.9143 50.438C90.8078 60.1486 82.2584 76.7743 70.5807 79.7358C67.5124 80.5139 64.1859 80.3999 61.3406 79.1069C53.9336 75.7411 43.1845 64.9108 43.5823 53.1593C43.6944 49.849 44.5199 46.5685 45.2451 43.324C47.8615 31.6176 54.7205 22.8357 61.6594 17.6425C70.9613 10.6807 84.2073 15.967 87.0507 27.0766C88.8583 34.1393 89.9143 42.8059 89.9143 50.438Z" fill="#FCFAF7"/>
<path d="M148.062 44.3741C148.986 47.9545 148.623 51.7073 148.06 55.3008C145.443 72.0117 131.354 82.0012 125.024 80.4579C113.672 77.6902 104.198 65.0492 102.537 55.3031C101.918 51.6675 102.505 47.9835 102.817 44.3476C103.456 36.8957 105.18 26.4811 107.697 19.3924C110.126 12.5548 118.329 10.1662 124.811 13.7071C135.49 19.5401 145.592 34.8072 148.062 44.3741Z" fill="#FCFAF7"/>
<path d="M181.069 96.1734C180.118 102.176 177.621 108.211 173.207 112.166C167.057 117.676 156.873 120.897 152.444 119.772C146.263 118.201 134.796 104.686 140.577 90.2097C143.494 82.9044 149.097 60.9527 167.353 60.9527C174.415 60.9527 183.462 81.0507 181.069 96.1734Z" fill="#FCFAF7"/>
</svg>
